<svg width="44" height="40" viewBox="0 0 44 40" fill="none" xmlns="http://www.w3.org/2000/svg">
<path d="M44 18.9649C43.9256 18.4811 43.6753 18.0408 43.296 17.7268H43.219C43.1392 17.6506 43.0623 17.6506 43.0623 17.6506C42.9853 17.6506 42.9055 17.5716 42.9055 17.5716C42.6717 17.4193 42.3582 17.4193 42.0448 17.4193H41.8908C41.699 17.4334 41.5121 17.4852 41.3408 17.5716C41.2637 17.5716 41.1868 17.6506 41.1868 17.6506L24.618 27.0089C24.3045 27.1612 23.9937 27.3953 23.6803 27.5504C23.133 27.7817 22.8195 27.7817 22.2722 27.5504C21.9615 27.3953 21.648 27.2402 21.2575 27.0061L10.0815 20.6657C9.84969 20.5145 9.57815 20.4339 9.3005 20.4339C9.02285 20.4339 8.75131 20.5145 8.5195 20.6657C8.27935 20.812 8.08134 21.017 7.94454 21.2611C7.80775 21.5051 7.73679 21.7799 7.7385 22.0589V22.7556C7.7385 22.8318 7.7385 22.9869 7.8155 23.0631C7.9271 23.4684 8.17554 23.8237 8.5195 24.0699C8.67625 24.1461 8.83025 24.3012 9.22075 24.5325L21.2575 31.4172C21.8048 31.7247 22.0385 31.8799 22.429 32.035C22.6429 32.1179 22.8725 32.1538 23.1019 32.1402C23.3313 32.1266 23.5549 32.0637 23.7572 31.9561C23.9937 31.8799 24.2275 31.7247 24.7747 31.4172L39.6248 22.908C39.7018 22.908 39.7788 22.8318 39.9355 22.7556C40.0923 22.6767 40.0923 22.7556 40.1693 22.7556C40.326 22.7556 40.249 23.2182 40.249 23.2944V26.5463C40.249 26.6986 40.172 26.7748 40.172 26.9299C40.0931 27.007 40.0143 27.0841 39.9355 27.1612C39.7788 27.2402 39.622 27.3164 39.7018 27.3164C39.6248 27.3164 39.545 27.3953 39.468 27.4715L26.4935 34.895C25.7125 35.3576 25.0882 35.6705 24.541 35.978C23.3667 36.5223 22.7425 36.5223 21.648 35.978C21.1007 35.7467 20.4765 35.3603 19.6157 34.895L7.425 27.8606C6.798 27.4742 6.3305 27.2429 5.94 26.9354C4.76658 26.0117 3.98556 24.6864 3.751 23.2209C3.674 22.7583 3.674 22.2141 3.674 21.365V18.9676C3.90775 17.7295 4.6915 16.5702 5.86025 15.8736C6.95475 15.2559 8.36275 15.2559 9.45725 15.8736L19.459 21.5963C20.3968 22.1406 21.0238 22.4481 21.494 22.6794C22.6655 23.2236 23.2128 23.2236 24.3815 22.6794C24.8518 22.4481 25.4788 22.1379 26.4165 21.5963L41.3435 13.0898C41.5501 12.9521 41.7212 12.7683 41.843 12.5533C41.9648 12.3382 42.0339 12.0979 42.0448 11.8516V11.2339C41.9711 10.7505 41.7218 10.3102 41.3435 9.99575L41.107 9.84336L26.4165 1.48919C25.4788 0.947667 24.8518 0.640169 24.3815 0.406143C23.2128 -0.135381 22.5858 -0.135381 21.494 0.406143C21.0238 0.640169 20.3968 0.950389 19.459 1.48919L6.721 8.75759C5.159 9.68281 4.532 9.99303 4.0645 10.3794C3.905 10.4584 0.077 12.932 0 18.1132V20.2793C0 22.0589 0 22.8318 0.15675 23.6046C0.54725 26.1571 1.8755 28.4756 3.90775 30.1002C4.532 30.5628 5.159 30.9519 6.721 31.8799L15.9445 37.1373C17.7402 38.2203 18.9145 38.8408 20.0063 39.3034C21.1805 39.8476 22.0412 40 22.8993 40C23.8342 40 24.695 39.7687 25.7895 39.3034C26.884 38.8408 28.2122 38.0652 29.854 37.1373L40.4827 31.107C41.4205 30.5628 42.0475 30.2553 42.4352 29.9451C42.9852 29.5587 43.296 29.2512 43.4527 28.8647C43.6865 28.4783 43.7663 28.0919 43.8433 27.4715C43.923 26.9299 43.923 26.2333 43.923 25.2292V19.3513C44 19.1962 44 19.0438 44 18.9649ZM8.283 11.4625L21.0238 4.19409C21.8048 3.73148 22.352 3.42126 22.8195 3.18724C22.8993 3.18724 22.9762 3.26615 23.056 3.26615C23.4465 3.42126 23.991 3.72876 24.7747 4.19137L37.6695 11.5387L24.772 18.886C24.2228 19.2357 23.6494 19.5467 23.056 19.8167C22.9762 19.8929 22.8993 19.8929 22.7425 19.8167C22.1486 19.547 21.5743 19.2369 21.0238 18.8887L11.0192 13.166C10.0072 12.5556 8.84402 12.2344 7.65875 12.238C7.34525 12.238 7.0345 12.238 6.798 12.3142C7.1115 12.1591 7.58175 11.8516 8.283 11.4625Z" fill="white"/>
</svg>
