<svg width="70" height="40" viewBox="0 0 70 40" fill="none" xmlns="http://www.w3.org/2000/svg">
<path d="M19.7417 40C30.6453 40 39.4841 31.0453 39.4841 19.9997C39.4841 8.95402 30.6446 0 19.7417 0C8.83882 0 0 8.95132 0 19.9997C0 31.048 8.83815 40 19.7417 40Z" fill="white"/>
<path d="M51.2705 38.8264C56.722 38.8264 61.1417 30.3978 61.1417 19.9997C61.1417 9.60424 56.722 1.17296 51.2705 1.17296C45.8191 1.17296 41.3993 9.60424 41.3993 19.9997C41.3993 30.3951 45.8191 38.8264 51.2705 38.8264Z" fill="white"/>
<path d="M66.5282 36.8676C68.4454 36.8676 70 29.3159 70 19.9997C70 10.6841 68.4468 3.13171 66.5288 3.13171C64.6109 3.13171 63.0563 10.6861 63.0563 19.9997C63.0563 29.3132 64.6109 36.8676 66.5282 36.8676Z" fill="white"/>
</svg>
